<svg width="1180" height="905" xmlns="http://www.w3.org/2000/svg" clip-rule="evenodd">

 <g>
  <title>background</title>
  <rect fill="none" id="canvas_background" height="907" width="1182" y="-1" x="-1"/>
 </g>
 <g>
  <title>Layer 1</title>
  <path id="svg_1" fill="#505a78" d="m1167.08,568.786l-569.845,-329l-580.549,335.18l569.846,329l580.548,-335.18z"/>
  <path id="svg_2" fill="#dcdee4" d="m1167.08,518.786l-569.845,-329l-580.549,335.18l569.846,329l580.548,-335.18z"/>
  <clipPath id="_clip1">
   <path id="svg_3" d="m1167.08,518.786l-569.845,-329l-580.549,335.18l569.846,329l580.548,-335.18z"/>
  </clipPath>
  <g id="svg_4" clip-path="url(#_clip1)">
   <path id="svg_5" fill="none" stroke="#fff" stroke-width="41.67px" d="m137.828,455.025l434.943,251.114"/>
   <path id="svg_6" fill="none" stroke="#fff" stroke-width="41.67px" d="m882.158,354.286l-290.275,167.59l284.923,164.5"/>
   <path id="svg_7" fill="none" stroke="#fff" stroke-width="41.67px" d="m741.904,608.49l-169.133,97.649"/>
   <path id="svg_8" fill="none" stroke="#fff" stroke-width="41.67px" d="m755.12,280.941l-580.548,335.18"/>
  </g>
  <path id="svg_9" fill="none" stroke="#505a78" stroke-width="29.17px" stroke-dashoffset="1166.67" d="m1167.08,518.786l-569.845,-329l-580.549,335.18l569.846,329l580.548,-335.18z"/>
  <ellipse id="svg_10" fill="#68718b" ry="48.4" rx="108.171" cy="530.209" cx="591.883"/>
  <path id="svg_11" fill="#fb9011" d="m591.883,0.069c101.075,0 183.136,83.603 183.136,186.578c0,89.932 -139.679,283.56 -175.065,331.17c-1.897,2.553 -4.89,4.059 -8.071,4.059c-3.181,0 -6.175,-1.505 -8.072,-4.058c-35.384,-47.611 -175.063,-241.239 -175.063,-331.171c0,-102.975 82.06,-186.578 183.135,-186.578z"/>
  <path id="svg_12" fill="#fff" fill-rule="nonzero" d="m571.23,241.178c0.6,0 1.175,-0.238 1.599,-0.662c0.423,-0.424 0.662,-0.999 0.662,-1.599c0,-8.933 0,-41.724 0,-50.657c0,-0.6 0.238,-1.175 0.662,-1.599c0.424,-0.424 0.999,-0.662 1.598,-0.662c6.582,0 25.683,0 32.265,0c0.599,0 1.174,0.238 1.598,0.662c0.424,0.424 0.662,0.999 0.662,1.599c0,8.933 0,41.724 0,50.657c0,0.6 0.238,1.175 0.662,1.599c0.424,0.424 0.999,0.662 1.599,0.662c7.816,0 33.645,0 41.461,0c0.599,0 1.174,-0.238 1.598,-0.662c0.424,-0.424 0.662,-0.999 0.662,-1.599c0,-10.919 0,-58.13 0,-69.05c0,-0.6 0.239,-1.175 0.662,-1.599c0.424,-0.424 0.999,-0.662 1.599,-0.662c4.208,0 13.365,0 19.438,0c0.936,0 1.775,-0.576 2.11,-1.45c0.336,-0.874 0.098,-1.864 -0.598,-2.49c-16.683,-15.015 -75.845,-68.261 -86.073,-77.467c-0.86,-0.773 -2.165,-0.773 -3.025,0c-10.228,9.206 -69.39,62.452 -86.073,77.467c-0.696,0.626 -0.934,1.616 -0.599,2.49c0.336,0.874 1.175,1.45 2.111,1.45c6.073,0 15.23,0 19.438,0c0.599,0 1.174,0.238 1.598,0.662c0.424,0.424 0.662,0.999 0.662,1.599c0,10.92 0,58.131 0,69.05c0,0.6 0.239,1.175 0.663,1.599c0.424,0.424 0.998,0.662 1.598,0.662c7.816,0 33.645,0 41.461,0z"/>
 </g>
</svg>