<svg width="1184" height="805" xmlns="http://www.w3.org/2000/svg" clip-rule="evenodd">

 <g>
  <title>background</title>
  <rect fill="none" id="canvas_background" height="602" width="802" y="-1" x="-1"/>
 </g>
 <g>
  <title>Layer 1</title>
  <g id="hiw.-3">
   <path id="svg_1" fill="#505a78" fill-opacity="0.15" d="m16.686,474.966l569.846,329l580.548,-335.18l-569.845,-329l-580.549,335.18z"/>
   <path id="svg_2" fill="#dcdee4" d="m16.686,424.966l569.846,329l580.548,-335.18l-569.845,-329l-580.549,335.18z"/>
   <clipPath id="_clip1">
    <path id="svg_3" d="m16.686,424.966l569.846,329l580.548,-335.18l-569.845,-329l-580.549,335.18z"/>
   </clipPath>
   <g id="svg_4" clip-path="url(#_clip1)">
    <path id="svg_5" fill="none" stroke="#fff" stroke-width="41.67px" d="m1045.94,488.727l-434.944,-251.114"/>
    <path id="svg_6" fill="none" stroke="#fff" stroke-width="41.67px" d="m301.609,589.466l290.274,-167.59l-284.922,-164.5"/>
    <path id="svg_7" fill="none" stroke="#fff" stroke-width="41.67px" d="m441.863,335.262l169.133,-97.649"/>
    <path id="svg_8" fill="none" stroke="#fff" stroke-width="41.67px" d="m428.647,662.811l580.553,-335.18"/>
   </g>
   <path id="svg_9" fill="none" stroke="#505a78" stroke-width="29.17px" stroke-dasharray="2041.67,58.33,2.92,58.33" stroke-dashoffset="1166.67" d="m16.686,424.966l569.846,329l580.548,-335.18l-569.845,-329l-580.549,335.18z"/>
   <ellipse id="svg_10" fill="#68718b" fill-opacity="0.5" ry="24.638" rx="55.064" cy="357.171" cx="300.25"/>
   <ellipse id="svg_11" fill="#68718b" fill-opacity="0.5" ry="24.638" rx="55.064" cy="478.609" cx="911.257"/>
   <ellipse id="svg_12" fill="#68718b" fill-opacity="0.5" ry="24.638" rx="55.064" cy="657.05" cx="591.883"/>
   <path id="svg_13" fill="#fb9011" d="m300.25,3.501c68.989,0 125,57.064 125,127.35c0,61.384 -95.339,193.546 -119.491,226.042c-1.295,1.743 -3.338,2.771 -5.51,2.771c-2.171,0 -4.214,-1.027 -5.509,-2.77c-24.152,-32.497 -119.49,-164.659 -119.49,-226.043c0,-70.286 56.01,-127.35 125,-127.35z"/>
   <clipPath id="_clip2">
    <path id="svg_14" d="m300.25,3.501c68.989,0 125,57.064 125,127.35c0,61.384 -95.339,193.546 -119.491,226.042c-1.295,1.743 -3.338,2.771 -5.51,2.771c-2.171,0 -4.214,-1.027 -5.509,-2.77c-24.152,-32.497 -119.49,-164.659 -119.49,-226.043c0,-70.286 56.01,-127.35 125,-127.35z"/>
   </clipPath>
   <g id="svg_15" clip-path="url(#_clip2)">
    <path id="svg_16" fill="#fff" fill-rule="nonzero" d="m256.768,82.804l86.9,0l-5.941,-6.32l-75.839,0l-5.12,6.32m97.454,1.453c1.833,2.149 2.907,4.867 2.907,8.027l0,78.999c0,6.934 -5.705,12.64 -12.639,12.64l-88.48,0c-6.934,0 -12.64,-5.706 -12.64,-12.64l0,-78.999c0,-3.16 1.074,-5.878 2.907,-8.027l8.722,-10.617c1.769,-2.149 4.361,-3.476 7.331,-3.476l75.84,0c2.97,0 5.561,1.327 7.268,3.476l8.784,10.617m-91.892,80.706l37.92,0l0,-18.96l-37.92,0l0,18.96z"/>
   </g>
   <path id="svg_17" fill="#fb9011" d="m911.257,122.806c68.989,0 125.003,57.064 125.003,127.35c0,61.383 -95.342,193.545 -119.495,226.042c-1.295,1.743 -3.338,2.77 -5.509,2.771c-2.171,0 -4.214,-1.027 -5.509,-2.77c-24.152,-32.498 -119.49,-164.66 -119.49,-226.043c0,-70.286 56.01,-127.35 125,-127.35z"/>
   <clipPath id="_clip3">
    <path id="svg_18" d="m911.257,122.806c68.989,0 125.003,57.064 125.003,127.35c0,61.383 -95.342,193.545 -119.495,226.042c-1.295,1.743 -3.338,2.77 -5.509,2.771c-2.171,0 -4.214,-1.027 -5.509,-2.77c-24.152,-32.498 -119.49,-164.66 -119.49,-226.043c0,-70.286 56.01,-127.35 125,-127.35z"/>
   </clipPath>
   <g id="svg_19" clip-path="url(#_clip3)">
    <path id="svg_20" fill="#fff" fill-rule="nonzero" d="m867.775,202.109l86.9,0l-5.941,-6.32l-75.84,0l-5.119,6.32m97.454,1.453c1.833,2.149 2.907,4.867 2.907,8.026l0,79c0,6.934 -5.706,12.64 -12.64,12.64l-88.479,0c-6.934,0 -12.64,-5.706 -12.64,-12.64l0,-79c0,-3.159 1.074,-5.877 2.907,-8.026l8.722,-10.617c1.769,-2.149 4.36,-3.476 7.331,-3.476l75.839,0c2.971,0 5.562,1.327 7.268,3.476l8.785,10.617m-91.892,80.706l37.92,0l0,-18.96l-37.92,0l0,18.96z"/>
   </g>
   <path id="svg_21" fill="#fb9011" d="m590.887,300.887c68.99,0 125,57.064 125,127.35c0,61.384 -95.338,193.546 -119.491,226.042c-1.295,1.743 -3.338,2.77 -5.509,2.771c-2.171,0 -4.215,-1.027 -5.51,-2.77c-24.151,-32.497 -119.49,-164.659 -119.49,-226.043c0,-70.286 56.011,-127.35 125,-127.35z"/>
   <clipPath id="_clip4">
    <path id="svg_22" d="m590.887,300.887c68.99,0 125,57.064 125,127.35c0,61.384 -95.338,193.546 -119.491,226.042c-1.295,1.743 -3.338,2.77 -5.509,2.771c-2.171,0 -4.215,-1.027 -5.51,-2.77c-24.151,-32.497 -119.49,-164.659 -119.49,-226.043c0,-70.286 56.011,-127.35 125,-127.35z"/>
   </clipPath>
   <g id="svg_23" clip-path="url(#_clip4)">
    <path id="svg_24" fill="#fff" fill-rule="nonzero" d="m547.406,380.19l86.899,0l-5.94,-6.32l-75.84,0l-5.119,6.32m97.454,1.453c1.832,2.149 2.907,4.867 2.907,8.027l0,78.999c0,6.934 -5.706,12.64 -12.64,12.64l-88.48,0c-6.934,0 -12.64,-5.706 -12.64,-12.64l0,-78.999c0,-3.16 1.075,-5.878 2.908,-8.027l8.721,-10.617c1.77,-2.149 4.361,-3.476 7.331,-3.476l75.84,0c2.97,0 5.562,1.327 7.268,3.476l8.785,10.617m-91.893,80.706l37.92,0l0,-18.96l-37.92,0l0,18.96z"/>
   </g>
  </g>
 </g>
</svg>